<svg width="20" height="20" viewBox="0 0 20 20" fill="none" xmlns="http://www.w3.org/2000/svg">
<path d="M2.66667 0C1.93652 0 1.27948 0.21824 0.792969 0.627604C0.306458 1.03697 0.0078125 1.64853 0.0078125 2.30339C0.0078125 3.54817 1.08752 4.51859 2.46094 4.61458L2.46354 4.61589C2.52899 4.63819 2.59753 4.65006 2.66667 4.65104C4.18201 4.65104 5.32552 3.58958 5.32552 2.30339C5.3254 2.29166 5.32497 2.27993 5.32422 2.26823C5.25638 1.00141 4.12696 0 2.66667 0ZM2.66667 1.31771C3.59482 1.31771 3.96131 1.73221 4.0013 2.32031C3.9932 2.89114 3.64006 3.33333 2.66667 3.33333C1.74306 3.33333 1.32552 2.86034 1.32552 2.30339C1.32552 2.02491 1.42714 1.81505 1.64063 1.63542C1.85411 1.45578 2.19681 1.31771 2.66667 1.31771ZM0.666667 5.32552C0.489861 5.32554 0.320302 5.39578 0.195282 5.5208C0.0702616 5.64582 1.76779e-05 5.81538 0 5.99219V18.6589C1.76779e-05 18.8357 0.0702616 19.0052 0.195282 19.1302C0.320302 19.2553 0.489861 19.3255 0.666667 19.3255H4.66667C4.84347 19.3255 5.01303 19.2553 5.13805 19.1302C5.26307 19.0052 5.33332 18.8357 5.33333 18.6589V14.7487V5.99219C5.33332 5.81538 5.26307 5.64582 5.13805 5.5208C5.01303 5.39578 4.84347 5.32554 4.66667 5.32552H0.666667ZM6.66667 5.32552C6.48986 5.32554 6.3203 5.39578 6.19528 5.5208C6.07026 5.64582 6.00002 5.81538 6 5.99219V18.6589C6.00002 18.8357 6.07026 19.0052 6.19528 19.1302C6.3203 19.2553 6.48986 19.3255 6.66667 19.3255H10.6667C10.8435 19.3255 11.013 19.2553 11.1381 19.1302C11.2631 19.0052 11.3333 18.8357 11.3333 18.6589V11.9922C11.3333 11.4391 11.4843 10.8889 11.75 10.5286C12.0157 10.1684 12.351 9.95223 12.9883 9.96354C13.6454 9.97484 13.9933 10.2 14.2565 10.5534C14.5197 10.9068 14.6667 11.4366 14.6667 11.9922V18.6589C14.6667 18.8357 14.7369 19.0052 14.8619 19.1302C14.987 19.2553 15.1565 19.3255 15.3333 19.3255H19.3333C19.5101 19.3255 19.6797 19.2553 19.8047 19.1302C19.9297 19.0052 20 18.8357 20 18.6589V11.5C20 9.52564 19.4152 7.96174 18.4128 6.90365C17.4103 5.84555 16.0161 5.32552 14.5417 5.32552C13.1403 5.32552 12.0739 5.79545 11.3333 6.27474V5.99219C11.3333 5.81538 11.2631 5.64582 11.1381 5.5208C11.013 5.39578 10.8435 5.32554 10.6667 5.32552H6.66667ZM1.33333 6.65885H4V14.7487V17.9922H1.33333V6.65885ZM7.33333 6.65885H10V7.69922C10 7.83901 10.044 7.97525 10.1257 8.08868C10.2074 8.20212 10.3227 8.287 10.4553 8.33134C10.5879 8.37567 10.731 8.37721 10.8645 8.33575C10.998 8.29428 11.1151 8.2119 11.1992 8.10026C11.1992 8.10026 12.2461 6.65885 14.5417 6.65885C15.7106 6.65885 16.7129 7.04724 17.4453 7.82031C18.1777 8.59338 18.6667 9.78436 18.6667 11.5V17.9922H16V11.9922C16 11.2144 15.8136 10.4103 15.3268 9.75651C14.84 9.10276 14.0212 8.64757 13.0117 8.63021C11.997 8.61219 11.165 9.07685 10.6771 9.73828C10.1892 10.3997 10 11.212 10 11.9922V17.9922H7.33333V6.65885Z" fill="white"/>
</svg>
