<svg width="92" height="20" viewBox="0 0 92 20" fill="none" xmlns="http://www.w3.org/2000/svg">
<g clip-path="url(#clip0_8_2890)">
<path d="M56.0878 0.00115967C50.4315 0.00115967 45.8301 4.4869 45.8301 10.0007C45.8301 15.5144 50.4315 20 56.0878 20C61.7441 20 66.3458 15.5144 66.3458 10.0007C66.3458 4.4869 61.744 0.00115967 56.0878 0.00115967ZM56.0878 15.2819C53.1004 15.2819 50.67 12.913 50.67 10.0007C50.67 7.08832 53.1001 4.71913 56.0878 4.71913C59.0756 4.71913 61.5058 7.08852 61.5058 10.0007C61.5058 12.9128 59.0751 15.2819 56.0878 15.2819Z" fill="#0F92FF"/>
<path d="M80.3934 0.00115967C73.9937 0.00115967 68.7871 5.07664 68.7871 11.3152C68.7871 14.3319 69.9929 17.1706 72.1825 19.3079C72.407 19.5272 72.6737 19.7011 72.9672 19.8199C73.2608 19.9387 73.5754 19.9999 73.8932 20.0001C74.211 20.0003 74.5258 19.9395 74.8195 19.8211C75.1132 19.7028 75.3801 19.5292 75.605 19.3102C76.5506 18.3896 76.5517 16.8959 75.6073 15.9739C74.3304 14.7275 73.6271 13.0729 73.6271 11.3155C73.6271 7.67786 76.6625 4.71942 80.3934 4.71942C84.1243 4.71942 87.1599 7.67836 87.1599 11.3155C87.1599 13.0732 86.4566 14.7279 85.1799 15.9745C84.2355 16.8963 84.2368 18.3902 85.1826 19.3105C86.1284 20.2308 87.6607 20.2299 88.6048 19.308C90.7941 17.1706 91.9998 14.3324 91.9998 11.3155C91.9998 5.07664 86.7931 0.00115967 80.3934 0.00115967Z" fill="#0F92FF"/>
<path d="M11.6064 0.00115967C5.20665 0.00115967 0 5.07664 0 11.3152C0 14.3319 1.2057 17.1706 3.39525 19.308C4.33964 20.2297 5.87194 20.2308 6.81775 19.3102C7.76357 18.3896 7.76448 16.8959 6.82009 15.974C5.54321 14.7275 4.8399 13.0729 4.8399 11.3155C4.8399 7.67787 7.87531 4.71942 11.6064 4.71942C15.3375 4.71942 18.3729 7.67836 18.3729 11.3155C18.3729 13.0732 17.6696 14.7278 16.3927 15.974C15.4483 16.8957 15.4496 18.3896 16.3951 19.3102C16.6199 19.5292 16.8868 19.7028 17.1805 19.8211C17.4742 19.9395 17.789 20.0003 18.1068 20.0001C18.4246 19.9999 18.7393 19.9387 19.0328 19.8199C19.3263 19.7011 19.593 19.5272 19.8176 19.308C22.0071 17.1706 23.2129 14.3323 23.2129 11.3152C23.2129 5.07664 18.0062 0.00115967 11.6064 0.00115967Z" fill="#0F92FF"/>
<path d="M43.1824 6.11472C44.1069 5.1739 44.0738 3.68061 43.1086 2.77943C41.1892 0.987105 38.6697 0 36.0148 0C30.3586 0 25.7568 4.48583 25.7568 9.9995C25.7568 15.5132 30.3586 19.9988 36.0148 19.9988C38.6697 19.9988 41.1892 19.0117 43.1086 17.2194C44.0738 16.3182 44.1069 14.8249 43.1824 13.8841C42.2579 12.9433 40.7256 12.911 39.7608 13.8122C38.7465 14.7593 37.4162 15.2808 36.0148 15.2808C33.0275 15.2808 30.5968 12.912 30.5968 9.9995C30.5968 7.08705 33.0275 4.71806 36.0148 4.71806C37.4162 4.71806 38.7465 5.23961 39.7608 6.18668C40.7256 7.08804 42.2578 7.05603 43.1824 6.11472Z" fill="#0F92FF"/>
<path d="M36.0148 12.3573C37.3503 12.3573 38.4329 11.3019 38.4329 10.0001C38.4329 8.69824 37.3503 7.64288 36.0148 7.64288C34.6793 7.64288 33.5967 8.69824 33.5967 10.0001C33.5967 11.3019 34.6793 12.3573 36.0148 12.3573Z" fill="#0F92FF"/>
</g>
<defs>
<clipPath id="clip0_8_2890">
<rect width="92" height="20" fill="white"/>
</clipPath>
</defs>
</svg>
