<svg width="20" height="18" viewBox="0 0 20 18" fill="none" xmlns="http://www.w3.org/2000/svg">
<path d="M19.1663 1.50008C18.3683 2.06298 17.4848 2.4935 16.5497 2.77508C16.0478 2.198 15.3808 1.78899 14.6389 1.60335C13.897 1.41771 13.1159 1.46441 12.4014 1.73712C11.6869 2.00984 11.0734 2.49541 10.6438 3.12818C10.2143 3.76094 9.98942 4.51036 9.99967 5.27508V6.10841C8.5352 6.14639 7.08407 5.82159 5.77551 5.16295C4.46696 4.50431 3.34161 3.53228 2.49967 2.33341C2.49967 2.33341 -0.833659 9.83341 6.66634 13.1667C4.95011 14.3317 2.90564 14.9159 0.833008 14.8334C8.33301 19.0001 17.4997 14.8334 17.4997 5.25008C17.4989 5.01796 17.4766 4.78641 17.433 4.55841C18.2835 3.71966 18.8837 2.66067 19.1663 1.50008Z" stroke="white" stroke-width="2" stroke-linecap="round" stroke-linejoin="round"/>
</svg>
