<svg width="20" height="20" viewBox="0 0 20 20" fill="none" xmlns="http://www.w3.org/2000/svg">
<g clip-path="url(#clip0_2003_1972)">
<path d="M18.7835 5.34992C18.6845 4.95443 18.4829 4.59206 18.199 4.29942C17.9152 4.00679 17.5591 3.79424 17.1668 3.68325C15.7335 3.33325 10.0001 3.33325 10.0001 3.33325C10.0001 3.33325 4.26682 3.33325 2.83348 3.71659C2.44119 3.82757 2.08513 4.04012 1.80127 4.33276C1.51741 4.62539 1.31581 4.98776 1.21682 5.38325C0.954496 6.83788 0.826181 8.31351 0.833484 9.79158C0.824134 11.2808 0.952457 12.7677 1.21682 14.2333C1.32595 14.6165 1.53207 14.965 1.81527 15.2453C2.09847 15.5256 2.44917 15.7281 2.83348 15.8333C4.26682 16.2166 10.0001 16.2166 10.0001 16.2166C10.0001 16.2166 15.7335 16.2166 17.1668 15.8333C17.5591 15.7223 17.9152 15.5097 18.199 15.2171C18.4829 14.9244 18.6845 14.5621 18.7835 14.1666C19.0438 12.7229 19.1721 11.2585 19.1668 9.79158C19.1762 8.30238 19.0478 6.8155 18.7835 5.34992V5.34992Z" stroke="white" stroke-width="2" stroke-linecap="round" stroke-linejoin="round"/>
<path d="M8.125 12.5167L12.9167 9.79165L8.125 7.06665V12.5167Z" stroke="white" stroke-width="2" stroke-linecap="round" stroke-linejoin="round"/>
</g>
<defs>
<clipPath id="clip0_2003_1972">
<rect width="20" height="20" fill="white"/>
</clipPath>
</defs>
</svg>
